<svg width="85" height="29" viewBox="0 0 85 29" fill="none" xmlns="http://www.w3.org/2000/svg">
<path d="M21.3789 17.6992H6.94727V13.0938H21.3789V17.6992ZM23.4355 28H6.94727C6.31445 28 5.62305 27.8887 4.87305 27.666C4.12305 27.4434 3.42578 27.0801 2.78125 26.5762C2.14844 26.0605 1.61523 25.3984 1.18164 24.5898C0.759766 23.7695 0.548828 22.7676 0.548828 21.584V5.0957C0.548828 4.7793 0.607422 4.48047 0.724609 4.19922C0.841797 3.91797 1 3.67188 1.19922 3.46094C1.41016 3.25 1.65625 3.08594 1.9375 2.96875C2.21875 2.85156 2.52344 2.79297 2.85156 2.79297H23.4355V7.36328H5.11914V21.584C5.11914 22.1816 5.27734 22.6387 5.59375 22.9551C5.91016 23.2715 6.37305 23.4297 6.98242 23.4297H23.4355V28ZM49.8906 8.99805C49.375 10.6035 48.7715 12.1855 48.0801 13.7441C47.3887 15.3027 46.5918 16.791 45.6895 18.209C44.7988 19.6152 43.7969 20.9219 42.6836 22.1289C41.582 23.3242 40.3574 24.3613 39.0098 25.2402C37.6738 26.1074 36.2148 26.793 34.6328 27.2969C33.0625 27.7891 31.3574 28.0352 29.5176 28.0352C29.2012 28.0352 28.9023 27.9766 28.6211 27.8594C28.3398 27.7422 28.0938 27.584 27.8828 27.3848C27.6719 27.1738 27.5078 26.9336 27.3906 26.6641C27.2734 26.3828 27.2148 26.084 27.2148 25.7676V8.99805H31.7852V23.2891C32.8984 23.2891 33.9648 23.0488 34.9844 22.5684C36.0156 22.0879 36.9883 21.4551 37.9023 20.6699C38.8164 19.873 39.6602 18.9707 40.4336 17.9629C41.2188 16.9551 41.916 15.9238 42.5254 14.8691C43.1348 13.8027 43.6504 12.7598 44.0723 11.7402C44.5059 10.7207 44.8281 9.80664 45.0391 8.99805H49.8906ZM72.2148 21.584C72.2148 22.3691 72.1152 23.0781 71.916 23.7109C71.7168 24.332 71.4531 24.8828 71.125 25.3633C70.7969 25.832 70.416 26.2363 69.9824 26.5762C69.5488 26.9043 69.0918 27.1738 68.6113 27.3848C68.1426 27.5957 67.6621 27.7539 67.1699 27.8594C66.6895 27.9531 66.2324 28 65.7988 28H57.5547C56.9219 28 56.2305 27.8887 55.4805 27.666C54.7305 27.4434 54.0332 27.0801 53.3887 26.5762C52.7559 26.0605 52.2227 25.3984 51.7891 24.5898C51.3672 23.7695 51.1562 22.7676 51.1562 21.584V15.3965C51.1562 14.2246 51.3672 13.2344 51.7891 12.4258C52.2227 11.6055 52.7559 10.9434 53.3887 10.4395C54.0332 9.92383 54.7305 9.55469 55.4805 9.33203C56.2305 9.10938 56.9219 8.99805 57.5547 8.99805H65.7988C66.9707 8.99805 67.9668 9.20898 68.7871 9.63086C69.6074 10.0527 70.2695 10.5859 70.7734 11.2305C71.2773 11.8633 71.6406 12.5547 71.8633 13.3047C72.0977 14.0547 72.2148 14.752 72.2148 15.3965V21.584ZM67.6445 15.4316C67.6445 14.7988 67.4863 14.3301 67.1699 14.0254C66.8535 13.7207 66.3965 13.5684 65.7988 13.5684H57.5898C56.9805 13.5684 56.5176 13.7266 56.2012 14.043C55.8848 14.3477 55.7266 14.7988 55.7266 15.3965V21.584C55.7266 22.1816 55.8848 22.6387 56.2012 22.9551C56.5176 23.2715 56.9805 23.4297 57.5898 23.4297H65.7988C66.4199 23.4297 66.8828 23.2715 67.1875 22.9551C67.4922 22.6387 67.6445 22.1816 67.6445 21.584V15.4316ZM84.4668 28H82.4277C81.7715 28 81.0684 27.8887 80.3184 27.666C79.5801 27.4434 78.8887 27.0801 78.2441 26.5762C77.5996 26.0605 77.0664 25.3984 76.6445 24.5898C76.2227 23.7695 76.0117 22.7676 76.0117 21.584V0.964844H80.582V21.584C80.582 22.1465 80.7578 22.5977 81.1094 22.9375C81.4609 23.2656 81.9004 23.4297 82.4277 23.4297H84.4668V28Z" fill="white"/>
</svg>
